<svg width="210" height="36" viewBox="0 0 210 36" fill="none" xmlns="http://www.w3.org/2000/svg">
<g clip-path="url(#clip0_22_747)">
<path fill-rule="evenodd" clip-rule="evenodd" d="M20.7957 4.34668H0.733765V10.3653H7.53253V30.2043H14.3313V10.3653H20.7957V4.34668Z" fill="#82969E"/>
<path fill-rule="evenodd" clip-rule="evenodd" d="M39.743 10.3652H33.3901V21.0649C33.3901 24.6315 31.3839 25.5231 30.0464 25.5231C28.0402 25.5231 26.9257 24.6315 26.9257 21.9566V10.3652H20.7957V22.2909C20.7957 27.5293 22.356 30.7615 27.9288 30.7615C30.0464 30.7615 32.6099 29.5355 33.613 27.5293H33.7244V30.3157H39.743V10.3652Z" fill="#82969E"/>
<path fill-rule="evenodd" clip-rule="evenodd" d="M51.78 14.7116C54.5663 14.7116 55.458 17.6095 55.458 20.0615C55.458 22.7364 54.5663 25.7457 51.78 25.7457C48.9936 25.7457 48.102 23.4051 48.102 20.0615C48.102 15.9376 50.1081 14.7116 51.78 14.7116ZM42.0834 35.9996H48.2134V28.0863C49.5509 29.7581 51.3341 30.7612 53.7862 30.7612C59.136 30.7612 61.8109 25.9686 61.8109 20.7302C61.8109 15.1575 59.136 9.80762 53.3403 9.80762C50.9998 9.80762 49.2165 10.9222 48.102 12.7054H47.9905V10.3649H42.0834V35.9996Z" fill="#82969E"/>
<path fill-rule="evenodd" clip-rule="evenodd" d="M72.9565 14.7116C75.7429 14.7116 76.6345 17.6095 76.6345 20.0615C76.6345 22.7364 75.7429 25.7457 72.9565 25.7457C70.0587 25.7457 69.0556 23.4051 69.0556 20.0615C69.0556 15.9376 71.2847 14.7116 72.9565 14.7116ZM63.037 35.9996H69.3899V28.0863C70.6159 29.7581 72.5107 30.7612 74.7398 30.7612C80.0896 30.7612 82.7645 25.9686 82.7645 20.7302C82.7645 15.1575 80.3125 9.80762 74.294 9.80762C72.1763 9.80762 70.2816 10.9222 69.0556 12.7054V10.3649H63.037V35.9996Z" fill="#82969E"/>
<path fill-rule="evenodd" clip-rule="evenodd" d="M90.2324 18.1667C90.5668 15.7147 92.1272 14.1544 94.2448 14.1544C96.3625 14.1544 97.9228 16.0491 97.9228 18.1667H90.2324ZM104.276 21.9562C104.61 15.1575 101.044 9.80762 94.2448 9.80762C88.6721 9.80762 84.1024 14.2658 84.1024 20.2844C84.1024 26.9717 88.2263 30.7612 94.4677 30.7612C98.8145 30.7612 102.827 28.755 104.053 24.2968H98.1458C97.477 25.6342 96.0281 26.4144 94.5792 26.4144C91.9043 26.4144 90.4554 24.5197 90.2324 21.9562H104.276Z" fill="#82969E"/>
<path fill-rule="evenodd" clip-rule="evenodd" d="M105.724 30.2046H111.855V20.6195C111.855 18.1675 113.415 15.9384 116.536 15.9384C117.427 15.9384 118.43 15.9384 118.43 15.9384V10.1427C117.873 10.0313 117.873 10.0312 117.427 10.0312C114.752 10.0312 112.635 11.2573 111.743 13.9322V10.3656H105.724V30.2046Z" fill="#82969E"/>
<path fill-rule="evenodd" clip-rule="evenodd" d="M149.861 10.3652H143.396L140.276 23.1826L137.489 10.3652H131.471L128.796 23.1826H128.684L125.564 10.3652H119.322L125.118 30.2042H131.471L134.368 16.9411H134.591L137.489 30.2042H143.842L149.861 10.3652Z" fill="#82969E"/>
<path fill-rule="evenodd" clip-rule="evenodd" d="M154.876 24.5198C154.876 22.848 156.102 22.1793 157.551 21.8449C158.888 21.5105 160.449 21.3991 161.452 20.7303C161.563 24.8542 160.56 26.6375 157.551 26.6375C156.102 26.7489 154.876 26.0802 154.876 24.5198ZM155.433 16.4951C155.768 14.8232 156.771 14.043 158.554 14.043C159.78 14.043 161.452 14.4889 161.452 16.0492C161.452 17.2752 161.006 17.6096 159.891 17.944C155.545 18.8356 148.746 18.2783 148.746 24.7427C148.746 28.8666 151.532 30.7613 155.21 30.7613C157.551 30.7613 159.891 30.0926 161.563 28.3093C161.563 29.0895 161.563 30.3155 161.563 30.3155H167.47C167.47 30.3155 167.47 26.7489 167.47 25.1885V16.3836C167.47 10.8108 163.124 9.69629 158.554 9.69629C156.436 9.69629 154.207 10.1421 152.535 11.0338C150.864 12.1483 149.749 13.8201 149.638 16.3836H155.433V16.4951Z" fill="#82969E"/>
<path fill-rule="evenodd" clip-rule="evenodd" d="M188.758 18.1667C189.204 15.7147 190.653 14.1544 192.882 14.1544C194.888 14.1544 196.449 16.0491 196.56 18.1667H188.758ZM202.802 21.9562C203.136 15.1575 199.681 9.80762 192.882 9.80762C187.198 9.80762 182.517 14.2658 182.517 20.2844C182.517 26.9717 186.641 30.7612 192.994 30.7612C197.118 30.7612 201.353 28.755 202.356 24.2968H196.449C195.78 25.6342 194.443 26.4144 192.882 26.4144C190.207 26.4144 188.758 24.5197 188.536 21.9562H202.802Z" fill="#82969E"/>
<path fill-rule="evenodd" clip-rule="evenodd" d="M169.7 30.2046H175.83V20.8424C175.83 18.3904 177.39 16.0498 180.511 16.0498C181.402 16.0498 182.517 16.0498 182.517 16.0498V10.1427C181.848 10.0313 181.848 10.0312 181.402 10.0312C178.727 10.0312 176.61 11.2573 175.718 13.9322V10.3656H169.7V30.2046Z" fill="#82969E"/>
<path fill-rule="evenodd" clip-rule="evenodd" d="M202.133 7.91332H202.913V5.57276H203.805L205.142 7.91332H206.034L204.474 5.46131C205.254 5.46131 205.811 5.01549 205.811 4.12385C205.811 3.23221 205.142 2.56348 203.916 2.56348H201.91V7.91332H202.133ZM202.913 3.23221H204.028C204.697 3.23221 205.142 3.23221 205.142 4.01239C205.142 4.79258 204.474 4.79258 203.916 4.79258H203.025V3.23221H202.913Z" fill="#82969E"/>
<path fill-rule="evenodd" clip-rule="evenodd" d="M198.901 5.12694C198.901 2.34056 201.242 0 204.028 0C206.926 0 209.266 2.34056 209.266 5.12694C209.266 8.02477 206.926 10.3653 204.028 10.3653C201.242 10.3653 198.901 8.02477 198.901 5.12694ZM204.028 9.6966C206.48 9.6966 208.486 7.57895 208.486 5.01548C208.486 2.56347 206.48 0.557276 204.028 0.557276C201.576 0.557276 199.57 2.56347 199.57 5.01548C199.57 7.57895 201.576 9.6966 204.028 9.6966Z" fill="#82969E"/>
</g>
<defs>
<clipPath id="clip0_22_747">
<rect width="208.533" height="36" fill="white" transform="translate(0.733765)"/>
</clipPath>
</defs>
</svg>
