<svg width="158" height="60" viewBox="0 0 158 60" fill="none" xmlns="http://www.w3.org/2000/svg">
<path fill-rule="evenodd" clip-rule="evenodd" d="M145.516 53.5476C143.594 52.5446 143.259 49.6195 143.259 42.5991L143.343 31.8178H139.666L140.501 29.812H143.343V24.7139L150.28 22.123V29.6449H153.456L152.62 31.8178H150.28V50.4552C150.447 51.9596 150.948 52.8789 151.617 53.464H145.516V53.5476Z" fill="#82969E"/>
<path fill-rule="evenodd" clip-rule="evenodd" d="M77.6524 7.41388C78.1538 8.83466 79.4075 10.339 78.4881 12.0105C78.0703 13.6821 76.4823 15.1029 74.8108 15.3536C73.0557 15.5207 71.3842 15.1864 70.047 14.0999C69.1276 9.16897 71.1335 4.65587 74.978 1.98145L77.6524 7.41388Z" fill="#82969E"/>
<path fill-rule="evenodd" clip-rule="evenodd" d="M84.5055 22.3736C83.5861 25.3823 74.8107 23.3765 72.1362 18.5291C75.73 18.947 79.8252 15.7711 79.9088 12.0938L84.5055 22.3736Z" fill="#82969E"/>
<path fill-rule="evenodd" clip-rule="evenodd" d="M88.0993 21.956C88.5172 21.7888 89.2694 21.3709 89.5201 20.5352L80.076 0.059097C79.4074 -0.0244788 78.9896 -0.108055 78.1538 0.476976L88.0993 21.956Z" fill="#82969E"/>
<path fill-rule="evenodd" clip-rule="evenodd" d="M92.3617 17.5269C96.3733 11.4259 93.0303 1.48036 84.3384 0.0595703L92.3617 17.5269Z" fill="#82969E"/>
<path fill-rule="evenodd" clip-rule="evenodd" d="M91.4423 30.648C92.696 29.5615 94.9525 29.5615 96.3733 30.2301C96.9583 30.5644 97.5434 30.8987 97.9612 31.4838L95.2032 35.8297C94.8689 35.579 94.6182 35.4118 94.1168 35.1611C92.7795 34.5761 91.2752 34.9104 90.4394 35.6625V48.2825C90.4394 50.4555 90.7737 52.4613 91.9438 53.4642H85.592C84.2548 52.4613 83.9205 50.8733 83.8369 49.4526L83.7534 32.6538C83.8369 31.3166 83.5026 30.7316 82.9176 29.8958H89.4365C89.938 30.3137 90.0215 30.8987 90.2723 31.4002L91.4423 30.648Z" fill="#82969E"/>
<path fill-rule="evenodd" clip-rule="evenodd" d="M99.4656 34.7429C99.382 33.155 99.7999 31.2327 98.7134 29.8955H104.814C105.232 30.2298 105.483 30.7313 105.567 31.1491C105.901 31.567 105.901 32.1521 105.984 32.6535L106.068 50.5387C106.319 51.6252 106.737 52.7117 107.489 53.5475H100.97C98.8805 51.4581 99.5491 48.115 99.382 44.6049L99.4656 34.7429Z" fill="#82969E"/>
<path fill-rule="evenodd" clip-rule="evenodd" d="M109.077 34.9097C109.746 33.0711 111.751 32.1517 113.256 31.2324C115.512 30.3966 118.02 28.3072 120.611 29.9788C122.7 31.3996 124.622 32.9039 125.959 35.0769C126.294 35.9126 126.461 36.832 126.628 37.7513C126.628 38.9214 126.879 39.8407 126.879 41.0108C126.962 42.2644 126.962 43.4345 126.879 44.6881C126.795 46.8611 125.792 48.7833 124.121 50.2877C121.613 52.5442 118.438 55.0515 114.927 53.38C111.835 51.9592 108.241 49.1176 108.408 45.1896C108.241 42.4316 108.158 40.0079 108.576 37.3334C108.743 36.4977 108.659 35.5783 109.077 34.9097ZM115.429 47.6133C115.763 48.6997 116.348 50.1205 117.685 50.2041C118.438 50.2041 119.023 49.5355 119.524 49.034C120.945 46.276 120.778 43.1837 120.778 40.0914C120.36 37.7513 120.861 34.4919 118.354 33.0711C117.435 32.7368 116.766 33.3218 116.265 33.9068C115.262 35.4112 115.178 37.0827 115.094 39.0049C114.593 42.0137 114.927 44.521 115.429 47.6133Z" fill="#82969E"/>
<path fill-rule="evenodd" clip-rule="evenodd" d="M131.392 53.5476C129.469 52.5446 129.135 49.6195 129.135 42.5991L129.219 31.8178H125.541L126.377 29.812H129.219V24.7139L136.155 22.123V29.6449H139.331L138.496 31.8178H136.155V50.4552C136.323 51.9596 136.824 52.8789 137.493 53.464H131.392V53.5476Z" fill="#82969E"/>
<path fill-rule="evenodd" clip-rule="evenodd" d="M68.2918 32.654C68.2918 31.3168 68.0411 30.7317 67.4561 29.896H73.975C74.4764 30.3139 74.56 30.8989 74.8107 31.4003L75.8972 30.481C77.1508 29.3945 79.4074 29.3945 80.8282 30.0631C81.4132 30.3974 81.9982 30.7317 82.4161 31.3168L79.6581 35.6627C79.3238 35.412 79.0731 35.2448 78.5716 34.9941C77.2344 34.4091 75.7301 34.7434 74.8943 35.4956V48.1155C74.8943 50.2885 75.2286 52.2943 76.3987 53.2972H70.0469C68.7097 52.2943 68.3754 50.7899 68.2918 49.2856V32.654Z" fill="#82969E"/>
<path fill-rule="evenodd" clip-rule="evenodd" d="M18.7314 39.2565L16.3077 44.1875C14.7198 47.1126 12.3797 50.6228 8.86947 51.4586C7.53226 51.96 6.27862 51.5421 5.02498 51.375L0.846191 58.3118C1.18049 58.6461 1.59837 58.8968 2.01625 59.064C9.4545 61.9055 12.4632 58.8132 19.7343 42.3488L26.6711 57.0581H35.8645L31.5185 47.1126L33.9422 42.0145L40.7119 56.891L49.4873 56.9746L34.1929 23.1264L27.089 26.6366L32.6886 39.2565L30.2649 44.1875L20.0686 22.207L12.6304 26.0515L18.7314 39.2565Z" fill="#82969E"/>
<path fill-rule="evenodd" clip-rule="evenodd" d="M46.98 45.2734C47.1472 42.8497 48.4844 40.5095 50.7409 39.2559C52.9975 37.8351 55.5883 37.3337 57.9284 36.08C58.3463 35.7457 58.8478 35.3278 58.8478 34.8264C58.8478 34.1578 58.5135 33.6563 57.9284 33.4056C54.4183 32.6534 51.4931 34.91 48.9023 37.0829C49.2366 35.495 49.4873 33.6563 50.2395 32.152C50.6574 31.7341 50.8245 31.2326 51.326 30.8983C53.8332 29.6447 56.9255 29.3104 59.7671 29.4775C62.1072 29.6447 64.1966 31.2326 64.9488 33.4056C65.3667 34.4085 65.3667 35.495 65.3667 36.4979V50.2043C65.3667 51.3744 65.9517 52.5445 66.6203 53.4638H60.3521C59.6 52.7952 59.1821 51.8758 58.9314 50.7894C57.0927 52.3773 53.2482 54.801 50.9917 53.2131C48.6515 52.2102 46.4786 48.6164 46.98 45.2734ZM58.5971 40.5095C58.5135 39.5902 57.8449 39.4231 57.3434 39.4231C55.7555 39.6738 54.4183 40.9274 53.6661 42.2646C52.9975 43.4347 52.8303 44.4376 52.7468 45.5241C52.7468 46.6942 52.6632 47.5299 53.1646 48.3657C53.4154 48.9507 54.0004 49.2014 54.5018 49.285C55.5048 49.4522 56.4241 49.2014 57.2598 48.7C59.0985 47.6971 58.7642 45.6077 58.7642 43.769L58.5971 40.5095Z" fill="#82969E"/>
<path fill-rule="evenodd" clip-rule="evenodd" d="M156.381 50.3715C156.715 50.7058 156.882 51.1237 156.882 51.5415C156.882 52.043 156.715 52.3773 156.381 52.7116C156.046 53.0459 155.628 53.2131 155.21 53.2131C154.709 53.2131 154.375 53.0459 154.04 52.7116C153.706 52.3773 153.539 51.9594 153.539 51.5415C153.539 51.1237 153.706 50.7058 154.04 50.3715C154.375 50.0372 154.793 49.87 155.21 49.87C155.628 49.7865 156.046 49.9536 156.381 50.3715ZM156.631 50.0372C156.213 49.6193 155.712 49.4521 155.21 49.4521C154.709 49.4521 154.208 49.6193 153.79 50.0372C153.372 50.4551 153.121 50.9565 153.121 51.5415C153.121 52.1266 153.288 52.628 153.706 52.9623C154.124 53.3802 154.625 53.5474 155.127 53.5474C155.712 53.5474 156.13 53.3802 156.548 52.9623C156.966 52.5445 157.133 52.043 157.133 51.458C157.216 50.9565 157.049 50.4551 156.631 50.0372ZM155.461 51.3744C155.378 51.458 155.294 51.458 155.127 51.458H154.876V50.7894H155.043C155.21 50.7894 155.294 50.7894 155.378 50.8729C155.461 50.9565 155.545 51.0401 155.545 51.1237C155.545 51.2072 155.545 51.2908 155.461 51.3744ZM154.876 51.8758H154.96H155.127C155.21 51.8758 155.294 51.8758 155.294 51.8758C155.378 51.8758 155.461 51.9594 155.461 52.043C155.461 52.1266 155.461 52.2102 155.461 52.2937C155.461 52.4609 155.461 52.5445 155.461 52.628H156.046V52.5445V52.4609V52.3773V52.2937C156.046 52.043 155.963 51.8758 155.879 51.7923C155.796 51.7087 155.712 51.7087 155.545 51.6251C155.712 51.6251 155.796 51.5415 155.963 51.458C156.046 51.3744 156.13 51.2072 156.13 51.0401C156.13 50.7894 156.046 50.6222 155.796 50.4551C155.712 50.3715 155.545 50.3715 155.378 50.3715C155.378 50.3715 155.21 50.3715 154.876 50.3715C154.625 50.3715 154.375 50.3715 154.208 50.3715V52.628H154.793V51.8758H154.876Z" fill="#82969E"/>
</svg>
