<svg width="150" height="60" viewBox="0 0 150 60" fill="none" xmlns="http://www.w3.org/2000/svg">
<path d="M12.7943 59.9268L12.7455 46.6221L1.2774 53.2989L12.7943 59.9268Z" fill="#82969E"/>
<path d="M28.6255 32.49L28.5767 18.833L0.202698 35.3383V48.9677L28.6255 32.49Z" fill="#82969E"/>
<path d="M28.6255 13.6569L28.5767 0L0.202698 16.4808V30.1102L28.6255 13.6569Z" fill="#82969E"/>
<path d="M45.2811 49.0963H41.6416V59.8007H39.773V49.0963H36.1335V47.2464H45.3085V49.0963H45.2811ZM52.96 54.8972C52.96 55.2464 52.9356 55.5465 52.9112 55.7487H46.7039C46.9023 57.5496 47.9252 58.3245 49.0732 58.3245C49.8213 58.3245 50.5449 58.0488 51.1189 57.5741L52.215 58.7502C51.3937 59.5496 50.4197 59.9753 48.9725 59.9753C46.7772 59.9753 44.9086 58.1989 44.9086 55.0718C44.9086 51.8712 46.5787 50.1683 49.0213 50.1683C51.6654 50.1959 52.96 52.3459 52.96 54.8972ZM51.0914 54.2234C50.9907 52.9217 50.3922 51.8467 48.8717 51.8467C47.6504 51.8467 46.8779 52.6981 46.7283 54.2234H51.0914ZM57.1735 59.8007H55.3294V47.6966L57.1735 46.7227V59.8007ZM67.5974 54.8972C67.5974 55.1729 67.5729 55.473 67.5485 55.7487H61.3412C61.5397 57.5496 62.5625 58.3245 63.7106 58.3245C64.4586 58.3245 65.1822 58.0488 65.7562 57.5741L66.8524 58.7502C66.031 59.5496 65.057 59.9753 63.6098 59.9753C61.4145 59.9753 59.5459 58.1989 59.5459 55.0718C59.5459 51.8712 61.216 50.1683 63.6587 50.1683C66.3242 50.1959 67.5974 52.3459 67.5974 54.8972ZM65.7501 54.2234C65.6494 52.9217 65.0509 51.8467 63.5304 51.8467C62.3091 51.8467 61.5366 52.6981 61.387 54.2234H65.7501ZM76.8701 51.7701L75.774 53.0718C75.0015 52.2724 74.3268 51.9202 73.481 51.9202C72.1345 51.9202 71.2857 53.1208 71.2857 55.0473C71.2857 56.8972 72.0826 58.2234 73.5299 58.2234C74.4031 58.2234 74.9252 57.8222 75.6488 57.0473L76.8213 58.2234C76.0976 59.1484 75.1511 59.9753 73.4566 59.9753C71.1636 59.9753 69.3927 58.0488 69.3927 55.0994C69.3927 51.9723 71.2124 50.1713 73.5054 50.1713C74.8519 50.1713 76.0732 50.7716 76.8701 51.7701ZM86.8451 55.0473C86.8451 58.1744 85.0254 59.9998 82.6072 59.9998C80.2379 59.9998 78.467 58.0488 78.467 55.0963C78.467 52.0213 80.2867 50.1928 82.6561 50.1928C85.0254 50.1928 86.8451 52.0978 86.8451 55.0473ZM84.9735 55.0963C84.9735 53.1698 84.0514 51.9447 82.5797 51.9447C81.1844 51.9447 80.3356 53.1943 80.3356 55.0473C80.3356 57.0994 81.2821 58.2479 82.6805 58.2479C84.0789 58.2479 84.9735 56.8237 84.9735 55.0963ZM101.855 59.8007H100.011V54.4715C100.011 52.5695 99.4124 51.8957 98.2155 51.8957C96.9942 51.8957 96.4202 52.7716 96.4202 54.2969V59.7977H94.576V54.4715C94.576 52.5695 93.9776 51.8957 92.7807 51.8957C91.5838 51.8957 90.9854 52.7716 90.9854 54.2969V59.7977H89.1656V50.3949H91.0098V51.2954C91.5319 50.5695 92.3563 50.1713 93.2539 50.1959C94.5241 50.1959 95.324 50.6706 95.8217 51.571C96.4934 50.7196 97.2415 50.1959 98.6887 50.1959C100.884 50.1959 101.904 51.62 101.904 54.398L101.855 59.8007Z" fill="#82969E"/>
<path d="M37.0524 18.6835H54.6301L51.2135 24.5364H44.6551V29.0387H51.3112V34.616H44.6551V42.7202H37.0494V18.6835H37.0524ZM56.5261 18.6835H64.1807V42.7447H56.5261V18.6835ZM67.9698 18.6835H84.2253V24.4844H75.5235V27.8596H82.3812V33.1612H75.5235V36.9131H84.723V42.714H67.9698V18.6835ZM87.4679 18.6835H97.0918C103.473 18.6835 106.59 21.4093 106.59 26.3128V26.7141C106.59 29.8657 105.021 31.6911 102.826 32.7661L107.937 42.7202H100.032L95.9438 34.3404H95.0461V42.7202H87.4679V18.6835ZM96.5422 29.5135C98.4108 29.5135 99.2596 28.662 99.2596 27.0112V26.5609C99.2596 24.9867 98.3864 24.3343 96.6155 24.3343H94.9942V29.5104H96.5422V29.5135ZM108.462 31.6635V29.7615C108.462 22.7325 112.725 18.2822 120.007 18.2822C126.739 18.2822 130.479 21.1337 130.479 27.7615H123.2C123.176 25.5349 122.229 24.2853 120.058 24.2853C117.714 24.2853 116.443 26.1352 116.443 29.7125V31.587C116.443 35.1888 117.54 37.0387 120.107 37.0387C122.226 37.0387 123.524 35.9637 123.524 33.3634H130.604C130.604 39.7646 126.791 43.1183 120.007 43.1183C112.053 43.1673 108.462 38.567 108.462 31.6635ZM133.02 18.6835H149.3V24.4844H140.573V27.8596H147.455V33.1612H140.573V36.9131H149.797V42.714H133.016V18.6835H133.02Z" fill="#82969E"/>
</svg>
