<svg width="186" height="40" viewBox="0 0 186 40" fill="none" xmlns="http://www.w3.org/2000/svg">
<path d="M60.2111 16.1997V11.0672H55.0629V2.82235H47.7346V11.0663H43.7762V16.1988H47.7346V27.6099C47.7346 34.5821 52.2145 38.5061 60.2111 38.5637V32.483C56.8208 32.4142 55.0629 30.3626 55.0629 26.4962V16.1997H60.2111ZM158.499 11.0635V37.6332H154.131V11.0635H158.499ZM168.076 11.0635V15.2784H168.18C169.996 12.0573 172.872 10.4462 176.814 10.4462C178.561 10.4462 180.019 10.687 181.183 11.1676C182.346 11.6464 183.29 12.3157 184.011 13.171C184.728 14.0281 185.236 15.0479 185.527 16.2285C185.818 17.411 185.964 18.7208 185.964 20.1599V37.6332H181.595V19.6458C181.595 17.9994 181.115 16.6998 180.158 15.7404C179.199 14.782 177.877 14.3014 176.2 14.3014C174.864 14.3014 173.707 14.5068 172.729 14.9177C171.754 15.3314 170.941 15.9124 170.291 16.6654C169.627 17.439 169.128 18.3399 168.824 19.313C168.497 20.3235 168.336 21.4288 168.336 22.6271V37.6332H163.969V11.0635H168.076ZM82.339 37.6332V33.9342H82.1829C81.2597 35.4755 80.0605 36.5892 78.5861 37.2743C77.1127 37.9595 75.6048 38.3025 74.0607 38.3025C72.1094 38.3025 70.5086 38.0441 69.2592 37.53C68.006 37.015 67.0216 36.2889 66.303 35.3454C65.5825 34.4036 65.0777 33.2574 64.7849 31.9029C64.4948 30.5485 64.3498 29.0518 64.3498 27.4045V11.0616H71.6465V26.0695C71.6465 28.2607 71.9886 29.8987 72.6737 30.9761C73.3588 32.0563 74.5748 32.5964 76.3216 32.5964C78.31 32.5964 79.7491 32.0052 80.6388 30.8227C81.5321 29.6421 81.9774 27.6992 81.9774 24.9921V11.0635H89.2759V37.6332H82.339ZM101.076 11.0635V14.7643H101.23C102.152 13.2221 103.354 12.0991 104.825 11.3982C106.299 10.6963 107.81 10.3449 109.349 10.3449C111.302 10.3449 112.905 10.6108 114.157 11.1397C115.407 11.6715 116.391 12.4077 117.112 13.3504C117.83 14.293 118.335 15.4411 118.628 16.7946C118.918 18.1482 119.066 19.6467 119.066 21.2903V37.6332H111.768V22.6271C111.768 20.4351 111.422 18.7989 110.738 17.7178C110.051 16.6394 108.835 16.1002 107.09 16.1002C105.103 16.1002 103.663 16.6915 102.771 17.873C101.882 19.0564 101.435 21.0012 101.435 23.7074V37.6332H94.1369V11.0635H101.076ZM131.735 31.2615C132.832 32.3241 134.407 32.8549 136.463 32.8549C137.934 32.8549 139.205 32.4868 140.267 31.7505C141.329 31.0133 141.983 30.2343 142.219 29.4115H148.645C147.618 32.5974 146.039 34.8778 143.917 36.2462C141.792 37.6164 139.223 38.3034 136.211 38.3034C134.117 38.3034 132.235 37.9669 130.555 37.3004C128.875 36.632 127.452 35.681 126.29 34.4483C125.126 33.2147 124.224 31.7421 123.592 30.0288C122.958 28.3155 122.64 26.4302 122.64 24.3748C122.64 22.3873 122.968 20.5392 123.616 18.824C124.268 17.1107 125.192 15.6289 126.394 14.3776C127.592 13.1273 129.024 12.1428 130.685 11.4223C132.347 10.7037 134.189 10.3449 136.211 10.3449C138.472 10.3449 140.443 10.7818 142.12 11.6538C143.797 12.5277 145.176 13.7018 146.256 15.1762C147.336 16.6506 148.117 18.3276 148.597 20.2129C149.077 22.0954 149.245 24.0662 149.111 26.1216H129.942C130.038 28.4856 130.636 30.1989 131.735 31.2615ZM139.982 17.2808C139.11 16.3224 137.782 15.8418 136.002 15.8418C134.835 15.8418 133.867 16.0426 133.096 16.434C132.323 16.829 131.71 17.3162 131.249 17.8981C130.784 18.481 130.458 19.0983 130.268 19.7481C130.081 20.3997 129.968 20.9817 129.936 21.4967H141.808C141.465 19.6458 140.858 18.2421 139.982 17.2808ZM159.136 2.82235C159.135 3.57064 158.838 4.28818 158.309 4.81712C157.779 5.34607 157.061 5.64308 156.313 5.64284C155.565 5.64259 154.847 5.3451 154.318 4.81581C153.789 4.28651 153.492 3.56878 153.493 2.82049C153.493 2.0722 153.79 1.35466 154.32 0.825717C154.849 0.296773 155.567 -0.000246399 156.315 1.53373e-07C157.063 0.000246706 157.781 0.297739 158.31 0.827032C158.839 1.35632 159.136 2.07406 159.136 2.82235Z" fill="#82969E"/>
<path d="M17.9308 13.9679C16.2335 13.9659 14.6063 13.2909 13.4061 12.0908C12.2059 10.8908 11.5306 9.26372 11.5284 7.56647C11.5253 6.72563 11.6892 5.89254 12.0106 5.11554C12.332 4.33854 12.8045 3.63309 13.4007 3.04012C13.9939 2.44384 14.6995 1.9711 15.4766 1.64925C16.2537 1.3274 17.0869 1.16283 17.928 1.16506C19.6254 1.16703 21.2527 1.84219 22.4529 3.04244C23.6532 4.24268 24.3284 5.87 24.3303 7.5674C24.3291 9.26438 23.6545 10.8915 22.4546 12.0915C21.2548 13.2916 19.6277 13.9664 17.9308 13.9679ZM0.036377 16.5299C0.036377 16.1943 0.308758 15.922 0.645283 15.922H17.8769C20.9855 15.922 23.5141 18.4413 23.5141 21.5388V26.5439C23.5141 26.6242 23.4983 26.7037 23.4675 26.7778C23.4368 26.852 23.3917 26.9194 23.3349 26.9761C23.2781 27.0328 23.2106 27.0778 23.1364 27.1084C23.0622 27.1391 22.9827 27.1548 22.9024 27.1546C22.8922 27.1546 22.8792 27.1546 22.8671 27.1565L5.65225 27.1537C4.16311 27.1518 2.73555 26.5592 1.68275 25.506C0.629938 24.4529 0.0378527 23.0251 0.036377 21.536L0.036377 16.5299ZM30.7447 15.8411H35.682C36.0167 15.8411 36.29 16.1153 36.29 16.4491V21.4579C36.2885 22.9469 35.6964 24.3744 34.6435 25.4273C33.5906 26.4801 32.1631 27.0723 30.6741 27.0738L25.7499 27.0728C25.6688 27.0747 25.5881 27.0604 25.5126 27.0307C25.4372 27.001 25.3684 26.9565 25.3103 26.8999C25.2522 26.8433 25.206 26.7756 25.1743 26.7009C25.1427 26.6262 25.1263 26.546 25.1261 26.4649V21.4588C25.1278 19.9693 25.7204 18.5412 26.7737 17.4881C27.8271 16.4349 29.2552 15.8426 30.7447 15.8411ZM22.9033 28.7685H12.9573C12.7959 28.769 12.6413 28.8333 12.5272 28.9474C12.4132 29.0615 12.3488 29.216 12.3484 29.3774V39.3932C12.3484 39.7344 12.6235 39.9993 12.9731 39.9993L17.8964 40.0002C19.3859 39.9988 20.8141 39.4064 21.8674 38.3533C22.9208 37.3001 23.5133 35.8721 23.515 34.3825V29.3765C23.5138 29.2149 23.4489 29.0605 23.3343 28.9466C23.2197 28.8327 23.0649 28.7687 22.9033 28.7685Z" fill="#82969E"/>
</svg>
