<svg width="146" height="72" viewBox="0 0 146 72" fill="none" xmlns="http://www.w3.org/2000/svg">
<path fill-rule="evenodd" clip-rule="evenodd" d="M143.03 15.4014C142.29 15.4014 141.579 15.6957 141.055 16.2195C140.531 16.7434 140.237 17.4539 140.237 18.1948C140.237 18.9356 140.531 19.6461 141.055 20.17C141.579 20.6939 142.29 20.9882 143.03 20.9882C143.398 20.9879 143.761 20.9151 144.1 20.7741C144.439 20.633 144.746 20.4265 145.005 20.1663C145.264 19.9061 145.469 19.5974 145.609 19.2578C145.748 18.9182 145.819 18.5544 145.817 18.1874C145.817 17.4484 145.523 16.7398 145.001 16.2173C144.478 15.6949 143.769 15.4014 143.03 15.4014ZM143.03 20.6519C142.707 20.6521 142.387 20.5884 142.088 20.4645C141.79 20.3407 141.518 20.159 141.29 19.93C141.062 19.701 140.881 19.4292 140.758 19.1302C140.635 18.8311 140.573 18.5107 140.574 18.1874C140.574 17.8652 140.638 17.5463 140.762 17.2488C140.885 16.9513 141.066 16.6811 141.294 16.4536C141.523 16.2262 141.793 16.046 142.091 15.9232C142.389 15.8005 142.708 15.7377 143.03 15.7384C143.68 15.7384 144.303 15.9964 144.762 16.4557C145.221 16.915 145.479 17.5379 145.479 18.1874C145.481 18.5102 145.419 18.8301 145.297 19.1288C145.174 19.4276 144.994 19.6992 144.767 19.9282C144.539 20.1572 144.269 20.339 143.971 20.4631C143.673 20.5873 143.353 20.6515 143.03 20.6519Z" fill="#82969E"/>
<path fill-rule="evenodd" clip-rule="evenodd" d="M144.466 17.4564C144.466 17.1933 144.349 16.9154 144.115 16.7838C143.88 16.6453 143.617 16.6305 143.353 16.6305H141.993V19.7528H142.373V18.3119H143.075L143.967 19.7528H144.421L143.477 18.3119C144.034 18.2971 144.466 18.0706 144.466 17.4564ZM142.959 18.0122H142.373V16.9084H143.265C143.653 16.9084 144.077 16.9668 144.077 17.4494C144.078 18.0854 143.396 18.0122 142.959 18.0122ZM49.5042 64.2611L31.3006 55.3722C30.9005 55.1651 30.6942 54.6358 30.702 54.2894L30.7503 49.3821C30.7573 49.0365 30.8258 48.6816 31.2796 48.3562C33.2257 47.1154 39.2523 43.7798 45.4782 34.6932C53.77 22.5909 45.4782 12.4231 32.5189 15.1912C21.009 17.6494 9.29127 23.8816 4.2089 27.2701C-0.320783 30.2896 0.308189 33.9381 0.182861 37.2098C0.434294 38.5931 0.937939 38.4678 2.07055 37.0837C10.5002 29.2831 23.3342 23.3693 25.7247 22.3628C28.1153 21.3563 33.7776 17.9593 40.4464 19.4686C46.8521 20.9196 45.2952 29.6287 43.3398 33.3091C41.2007 37.3352 35.0986 43.1858 32.3305 44.6329C31.2788 45.1825 30.8842 44.6329 30.8842 43.7518L31.3247 24.8157C31.3247 23.5577 30.758 22.991 29.5001 23.4316L27.4871 24.4381C26.103 25.2563 26.1661 25.5707 26.04 26.5773L25.7348 48.4076C25.7247 48.8785 25.5052 49.2568 25.246 49.3681L18.6791 53.0618C17.1698 53.8169 17.5465 54.9495 18.6791 55.327L23.9639 57.8429C25.2226 58.3458 25.6002 58.7233 25.6002 59.9813L25.411 70.5508C30.1299 69.6073 30.4436 67.3421 30.5697 65.8319V62.6232C30.695 61.8682 31.1356 61.6167 31.7646 61.7428L47.1144 69.166C48.4985 69.7957 49.2535 69.5427 50.2601 67.7827C51.2658 66.0227 51.3919 65.1423 49.5042 64.2611ZM76.3297 37.5944C74.1968 38.8259 73.2097 41.1308 74.0504 42.5857C74.8896 44.0413 77.4273 44.2858 79.5617 43.0527C81.6962 41.8205 82.6194 39.5786 81.7787 38.1237C80.9395 36.6688 78.4641 36.3613 76.3297 37.5944Z" fill="#82969E"/>
<path fill-rule="evenodd" clip-rule="evenodd" d="M68.4589 39.1604C67.879 39.8672 66.7604 42.0234 66.1314 43.3444C65.5025 44.6646 64.1815 47.653 62.8605 47.653C61.464 47.653 61.2873 44.1937 61.2873 42.935C61.2873 41.6762 60.5322 41.4879 60.1546 41.5509C59.7771 41.614 58.7075 41.9907 58.393 43.3125C58.0786 44.6335 56.38 50.3589 54.4923 50.3589C53.2974 50.3589 52.4163 46.8987 52.354 45.8292C52.2909 44.7604 51.7873 43.8792 50.7177 43.8792C49.9626 43.8792 49.0192 44.2567 48.6417 44.6973C48.2641 45.1379 48.2018 45.8292 46.188 45.3894C44.3634 45.3263 42.6018 46.2705 40.4635 49.856C39.1759 52.0146 38.1297 56.0375 40.0859 57.6566C41.9106 59.166 45.1185 56.461 46.0627 55.3284C47.0062 54.1965 47.8243 53.3784 48.2018 52.7502C48.5786 52.1204 48.9569 52.1835 49.1453 52.8125C49.3337 53.4422 50.4032 55.8951 51.7881 55.8328C53.1721 55.7697 54.9337 54.7002 57.0098 51.0509C57.3873 50.2958 57.9532 50.3589 58.0793 50.9878C58.2054 51.6176 59.0228 53.6937 60.4068 53.6937C61.7278 53.6937 63.1975 51.595 63.93 50.3596C64.4329 49.5104 65.188 49.9198 65.188 50.7372C65.188 51.5545 64.8104 70.8682 64.8104 70.8682C64.8104 71.7486 65.156 72 65.785 72H68.522C69.0248 72 69.4654 71.5602 69.4654 70.8682L70.0314 39.5698C70.0321 38.814 69.1829 38.28 68.4589 39.1604ZM47.07 51.4907C46.5033 52.4349 44.9939 54.9508 43.6729 54.511C42.9809 54.1335 43.9033 51.6168 44.365 50.7364C45.057 49.4154 47.0856 47.3113 48.0135 47.8422C48.8946 48.3451 47.6359 50.5472 47.07 51.4907ZM142.925 32.195C142.674 32.4153 142.265 32.7928 141.353 32.3833C139.779 31.7544 139.654 28.7979 138.837 26.0921C138.101 23.6618 136.331 23.8144 135.691 24.9283L133.772 28.0109C133.426 28.6399 132.672 30.087 131.916 30.087C131.035 30.087 131.429 28.8283 131.477 27.5703C131.507 26.721 130.972 25.6523 130.092 25.6523C129.085 25.6523 128.017 27.1928 127.199 28.9551C126.627 30.1874 125.154 34.9 123.297 34.9C122.102 34.9 121.976 31.4399 121.914 30.3703C121.851 29.3008 121.473 27.9798 120.404 27.9798C119.68 27.9798 119.209 28.3565 118.831 28.7971C118.454 29.2377 118.392 29.6145 117.07 29.4261C115.246 29.363 112.226 31.0624 110.087 34.6478C108.8 36.8064 107.25 41.333 109.207 42.9521C111.031 44.4615 114.301 40.9383 115.246 39.8065C116.188 38.6738 117.007 37.8557 117.385 37.2275C117.762 36.5978 118.139 36.6608 118.328 37.2906C118.516 37.9195 119.586 40.3732 120.97 40.3101C122.355 40.247 123.486 39.9326 125.563 36.2833C125.94 35.529 126.632 35.4348 126.758 36.0638C126.884 36.6927 127.01 38.3601 128.331 38.3601C130.595 38.3601 133.161 32.8496 133.804 31.5652C134.37 30.4326 135.282 30.7471 135.597 31.5964C136.047 32.8123 136.445 36.7239 138.899 36.7239C141.353 36.7239 143.019 34.113 143.522 33.2949C144.09 32.4783 143.795 31.4344 142.925 32.195ZM116.251 35.9696C115.686 36.913 114.427 38.9891 113.106 38.5485C112.414 38.171 113.273 36.3471 113.736 35.4659C114.428 34.1449 116.455 32.0105 117.385 32.5406C118.264 33.0442 116.817 35.0253 116.251 35.9696ZM104.098 32.6721C104.098 32.6721 98.7508 28.7714 97.2406 27.0106C96.2263 25.8274 96.9261 24.9345 97.5551 24.4317C101.329 21.915 107.243 18.0143 109.571 11.9752C111.814 6.15414 108.312 1.09201 105.796 0.273875C102.347 -0.846286 95.0377 1.40649 91.3884 8.20063C89.0258 12.6011 87.9298 14.0513 87.6145 26.0041C87.5538 28.2678 87.4884 30.8483 87.4884 33.6794C87.4884 36.5106 87.174 44.1851 86.8587 45.6314C85.6638 49.0285 89.25 47.0155 90.8847 45.6953C92.521 44.3735 92.3941 42.3924 92.3941 41.5431C92.3941 40.4728 92.4579 21.6005 93.0239 17.3853C93.3765 14.7636 93.7797 9.89917 96.5463 5.68397C99.3151 1.46877 102.146 3.16808 102.901 3.85933C103.656 4.55135 104.726 6.31294 104.159 9.89917C103.28 15.4642 96.8607 21.5375 95.2245 23.4244C93.5898 25.3113 93.9673 26.9476 94.9115 28.2686C95.5818 29.2081 97.2391 31.0367 98.9376 32.7352C100.636 34.4337 100.447 35.9439 100.196 37.0765C99.3143 40.4728 90.1297 49.6583 90.1297 49.6583C88.1789 51.7343 90.1919 55.1314 90.8839 56.2633C91.5775 57.3959 92.4572 57.0191 93.0231 56.0749C95.2883 51.8604 105.039 41.6685 105.039 41.6685C107.873 38.0822 106.677 34.6221 104.098 32.6721Z" fill="#82969E"/>
</svg>
