<svg width="15" height="18" viewBox="0 0 15 18" fill="none" xmlns="http://www.w3.org/2000/svg">
<g clip-path="url(#clip0_1_8)">
<path d="M7.52332 5.18164C5.4116 5.18164 3.70828 6.88496 3.70828 8.99668C3.70828 11.1084 5.4116 12.8117 7.52332 12.8117C9.63504 12.8117 11.3384 11.1084 11.3384 8.99668C11.3384 6.88496 9.63504 5.18164 7.52332 5.18164ZM7.52332 11.477C6.15867 11.477 5.04305 10.3646 5.04305 8.99668C5.04305 7.62871 6.15535 6.51641 7.52332 6.51641C8.89129 6.51641 10.0036 7.62871 10.0036 8.99668C10.0036 10.3646 8.88797 11.477 7.52332 11.477ZM12.3843 5.02559C12.3843 5.52031 11.9858 5.91543 11.4944 5.91543C10.9997 5.91543 10.6046 5.51699 10.6046 5.02559C10.6046 4.53418 11.003 4.13574 11.4944 4.13574C11.9858 4.13574 12.3843 4.53418 12.3843 5.02559ZM14.911 5.92871C14.8546 4.73672 14.5823 3.68086 13.7091 2.81094C12.8391 1.94102 11.7833 1.66875 10.5913 1.60898C9.36277 1.53926 5.68055 1.53926 4.45203 1.60898C3.26336 1.66543 2.2075 1.9377 1.33426 2.80762C0.461015 3.67754 0.19207 4.7334 0.132304 5.92539C0.0625778 7.15391 0.0625778 10.8361 0.132304 12.0646C0.18875 13.2566 0.461015 14.3125 1.33426 15.1824C2.2075 16.0523 3.26004 16.3246 4.45203 16.3844C5.68055 16.4541 9.36277 16.4541 10.5913 16.3844C11.7833 16.3279 12.8391 16.0557 13.7091 15.1824C14.579 14.3125 14.8513 13.2566 14.911 12.0646C14.9807 10.8361 14.9807 7.15723 14.911 5.92871ZM13.3239 13.3828C13.0649 14.0336 12.5636 14.535 11.9095 14.7973C10.93 15.1857 8.60574 15.0961 7.52332 15.0961C6.4409 15.0961 4.11336 15.1824 3.13719 14.7973C2.48641 14.5383 1.98504 14.0369 1.72273 13.3828C1.33426 12.4033 1.42391 10.0791 1.42391 8.99668C1.42391 7.91426 1.33758 5.58672 1.72273 4.61055C1.98172 3.95977 2.48309 3.4584 3.13719 3.19609C4.11668 2.80762 6.4409 2.89727 7.52332 2.89727C8.60574 2.89727 10.9333 2.81094 11.9095 3.19609C12.5602 3.45508 13.0616 3.95645 13.3239 4.61055C13.7124 5.59004 13.6227 7.91426 13.6227 8.99668C13.6227 10.0791 13.7124 12.4066 13.3239 13.3828Z" fill="white"/>
</g>
<defs>
<clipPath id="clip0_1_8">
<rect width="14.96" height="17" fill="white" transform="translate(0.0400009 0.5)"/>
</clipPath>
</defs>
</svg>
